<?xml version="1.0" encoding="utf-8"?>
<!-- Generator: Adobe Illustrator 16.0.3, SVG Export Plug-In . SVG Version: 6.00 Build 0)  -->
<!DOCTYPE svg PUBLIC "-//W3C//DTD SVG 1.1//EN" "http://www.w3.org/Graphics/SVG/1.1/DTD/svg11.dtd">
<svg version="1.1" id="Layer_1" xmlns="http://www.w3.org/2000/svg" xmlns:xlink="http://www.w3.org/1999/xlink" x="0px" y="0px"
	 width="1000px" height="153.888px" viewBox="0 0 1000 153.888" enable-background="new 0 0 1000 153.888" xml:space="preserve">
<g>
	<g>
		<path fill="#243335" d="M162.192,153.888H13.742C6.031,153.888,0,147.857,0,140.156V48.548C0,19.963,17.58,0,42.748,0h148.455
			c7.832,0,13.728,5.898,13.728,13.731v91.616C204.931,133.924,187.349,153.888,162.192,153.888z M42.748,11.55
			c-18.944,0-31.188,14.517-31.188,36.998v91.608c0,1.259,0.912,2.18,2.182,2.18h148.45c18.938,0,31.188-14.52,31.188-36.988V13.731
			c0-1.422-0.757-2.182-2.177-2.182H42.748z"/>
		<path fill="#243335" d="M175.918,105.348c0,7.576-6.146,13.729-13.726,13.729c-7.588,0-13.733-6.153-13.733-13.729
			c0-7.594,6.146-13.739,13.733-13.739C169.772,91.608,175.918,97.754,175.918,105.348z"/>
		<rect x="49.921" y="53.197" fill="#243335" width="105.584" height="13.732"/>
	</g>
</g>
</svg>
